<?xml version="1.0" encoding="UTF-8" standalone="no"?>
<!-- Generator: Adobe Illustrator 19.0.0, SVG Export Plug-In . SVG Version: 6.00 Build 0)  -->

<svg
   xmlns:dc="http://purl.org/dc/elements/1.1/"
   xmlns:cc="http://creativecommons.org/ns#"
   xmlns:rdf="http://www.w3.org/1999/02/22-rdf-syntax-ns#"
   xmlns:svg="http://www.w3.org/2000/svg"
   xmlns="http://www.w3.org/2000/svg"
   xmlns:sodipodi="http://sodipodi.sourceforge.net/DTD/sodipodi-0.dtd"
   xmlns:inkscape="http://www.inkscape.org/namespaces/inkscape"
   version="1.1"
   id="Capa_1"
   x="0px"
   y="0px"
   viewBox="0 0 58 58"
   xml:space="preserve"
   inkscape:version="0.91 r13725"
   sodipodi:docname="icon.svg"
   width="58"
   height="58"
   inkscape:export-filename="C:\Users\Jose\Downloads\icon-16.png"
   inkscape:export-xdpi="24.83"
   inkscape:export-ydpi="24.83"><metadata
     id="metadata61"><rdf:RDF><cc:Work
         rdf:about=""><dc:format>image/svg+xml</dc:format><dc:type
           rdf:resource="http://purl.org/dc/dcmitype/StillImage" /><dc:title></dc:title></cc:Work></rdf:RDF></metadata><defs
     id="defs59" /><sodipodi:namedview
     pagecolor="#ffffff"
     bordercolor="#666666"
     borderopacity="1"
     objecttolerance="10"
     gridtolerance="10"
     guidetolerance="10"
     inkscape:pageopacity="0"
     inkscape:pageshadow="2"
     inkscape:window-width="1366"
     inkscape:window-height="705"
     id="namedview57"
     showgrid="false"
     inkscape:zoom="5.3803028"
     inkscape:cx="29"
     inkscape:cy="29"
     inkscape:window-x="-8"
     inkscape:window-y="-8"
     inkscape:window-maximized="1"
     inkscape:current-layer="g3" /><g
     id="g27" /><g
     id="g29" /><g
     id="g31" /><g
     id="g33" /><g
     id="g35" /><g
     id="g37" /><g
     id="g39" /><g
     id="g41" /><g
     id="g43" /><g
     id="g45" /><g
     id="g47" /><g
     id="g49" /><g
     id="g51" /><g
     id="g53" /><g
     id="g55" /><g
     transform="matrix(0.18826665,0,0,0.18826665,3.8081081,7.10548)"
     id="g3"><polygon
       style="fill:#806612;fill-opacity:1"
       points="20.5,2 5.5,2 5.5,58 52.5,58 52.5,2 37.5,2 33.5,2 33.5,5 24.5,5 24.5,2 "
       id="polygon3"
       transform="matrix(5.3116152,0,0,5.3116152,-20.227205,-37.741576)" /><rect
       x="109.90737"
       style="fill:#303644"
       width="47.804535"
       height="26.558077"
       id="rect5"
       y="-37.741577" /><polygon
       style="fill:#edeada"
       points="40.5,8 17.5,8 17.5,5 8.5,5 8.5,55 49.5,55 49.5,5 40.5,5 "
       id="polygon7"
       transform="matrix(5.3116152,0,0,5.3116152,-20.227205,-37.741576)" /><polygon
       style="fill:#7383bf"
       points="33.5,5 24.5,5 24.5,2 17.5,2 17.5,8 40.5,8 40.5,2 33.5,2 "
       id="polygon9"
       transform="matrix(5.3116152,0,0,5.3116152,-20.227205,-37.741576)" /><path
       style="fill:#cec9ae"
       d="m 168.33513,47.244267 -69.050999,0 c -2.93732,0 -5.31161,-2.374292 -5.31161,-5.311615 0,-2.937323 2.37429,-5.311615 5.31161,-5.311615 l 69.050999,0 c 2.93732,0 5.31162,2.374292 5.31162,5.311615 0,2.937323 -2.3743,5.311615 -5.31162,5.311615 z"
       id="path11"
       inkscape:connector-curvature="0" /><path
       style="fill:#cec9ae"
       d="m 168.33513,211.90433 -69.050999,0 c -2.93732,0 -5.31161,-2.37429 -5.31161,-5.31161 0,-2.93732 2.37429,-5.31162 5.31161,-5.31162 l 69.050999,0 c 2.93732,0 5.31162,2.3743 5.31162,5.31162 0,2.93732 -2.3743,5.31161 -5.31162,5.31161 z"
       id="path13"
       inkscape:connector-curvature="0" /><path
       style="fill:#cec9ae"
       d="m 210.82805,79.113959 -154.036836,0 c -2.937323,0 -5.311615,-2.374292 -5.311615,-5.311616 0,-2.937323 2.374292,-5.311615 5.311615,-5.311615 l 154.036836,0 c 2.93733,0 5.31162,2.374292 5.31162,5.311615 0,2.937324 -2.37429,5.311616 -5.31162,5.311616 z"
       id="path15"
       inkscape:connector-curvature="0" /><path
       style="fill:#cec9ae"
       d="m 210.82805,142.85334 -154.036836,0 c -2.937323,0 -5.311615,-2.3743 -5.311615,-5.31162 0,-2.93732 2.374292,-5.31161 5.311615,-5.31161 l 154.036836,0 c 2.93733,0 5.31162,2.37429 5.31162,5.31161 0,2.93732 -2.37429,5.31162 -5.31162,5.31162 z"
       id="path17"
       inkscape:connector-curvature="0" /><path
       style="fill:#cec9ae"
       d="m 210.82805,180.03464 -154.036836,0 c -2.937323,0 -5.311615,-2.37429 -5.311615,-5.31161 0,-2.93733 2.374292,-5.31162 5.311615,-5.31162 l 154.036836,0 c 2.93733,0 5.31162,2.37429 5.31162,5.31162 0,2.93732 -2.37429,5.31161 -5.31162,5.31161 z"
       id="path19"
       inkscape:connector-curvature="0" /><path
       style="fill:#cec9ae"
       d="m 170.99095,110.98365 -74.362614,0 c -2.93733,0 -5.31162,-2.3743 -5.31162,-5.31162 0,-2.93732 2.37429,-5.31162 5.31162,-5.31162 l 74.362614,0 c 2.93732,0 5.31161,2.3743 5.31161,5.31162 0,2.93732 -2.37429,5.31162 -5.31161,5.31162 z"
       id="path21"
       inkscape:connector-curvature="0" /><path
       style="fill:#cec9ae"
       d="m 152.40029,110.98365 -37.1813,0 c -2.93733,0 -5.31162,-2.3743 -5.31162,-5.31162 0,-2.93732 2.37429,-5.31162 5.31162,-5.31162 l 37.1813,0 c 2.93733,0 5.31162,2.3743 5.31162,5.31162 0,2.93732 -2.37429,5.31162 -5.31162,5.31162 z"
       id="path23"
       inkscape:connector-curvature="0" /><path
       style="fill:#cec9ae"
       d="m 133.80963,110.98365 c -1.43945,0 -2.76735,-0.53648 -3.77125,-1.54037 -0.9614,-1.00921 -1.54036,-2.39023 -1.54036,-3.77125 0,-1.43945 0.53116,-2.76735 1.54036,-3.77125 2.01842,-2.018406 5.52408,-1.965286 7.5425,0 1.00389,1.0039 1.54037,2.3318 1.54037,3.77125 0,1.43414 -0.58428,2.76204 -1.54037,3.77125 -1.00921,0.95609 -2.33711,1.54037 -3.77125,1.54037 z"
       id="path25"
       inkscape:connector-curvature="0" /><g
       id="g5"
       transform="translate(15.499503,8.6085922)"><path
         inkscape:connector-curvature="0"
         d="m 197.023,225.545 c -1.145,-9.533 -11.68,-10.614 -17.805,-9.958 -6.521,-24.554 16.225,-61.151 17.563,-69.82 1.438,-9.312 -6.658,-63.5 -7.513,-90.938 C 188.389,26.662 147.48,-4.433 140.65,0.524 c -6.768,7.484 9.748,17.585 1.054,26.245 -8.398,8.367 -10.588,13.99 -16.824,23.46 -15.976,24.255 27.318,24.558 27.318,24.558 0,0 -33.882,25.112 -41.421,37.768 -6.943,11.656 -9.854,24.696 -18.232,35.688 -19.094,25.051 -14.791,68.729 -14.791,68.729 0,0 -36.17,-11.839 -16.264,-53.133 C 76.643,132.406 84.107,86.02 50.016,97.95 c -13.189,4.616 2.949,14.325 5.734,17.435 9.318,10.4 1.441,27.896 -4.174,38.012 -15.037,27.091 -20.496,55.475 11.154,72.978 14.063,7.776 33.055,9.7 52.17,9.982 l 48.64,0.14 c 16.024,0.797 34.149,-2.199 33.483,-10.952 z"
         id="path7" /></g></g></svg>